<svg xmlns="http://www.w3.org/2000/svg" width="42" height="32" viewBox="0 0 42 32"><g fill="white"><path d="M39.5 14h-37a.503.503 0 0 0-.486.621L6.02 30.638C6.116 30.975 6.411 32 7.5 32h27c1.093 0 1.385-1.026 1.485-1.379l4-16A.5.5 0 0 0 39.5 14zm-4.48 16.363c-.182.637-.37.637-.52.637h-27c-.149 0-.336 0-.515-.621L3.141 15H38.86l-3.84 15.363z"/><path d="M18.5 28a.5.5 0 00.5-.5v-9a.5.5 0 00-1 0v9a.5.5 0 00.5.5zM11.499 28a.5.5 0 00.498-.555l-1-9a.5.5 0 10-.994.11l1 9a.5.5 0 00.496.445zM24.5 28a.5.5 0 00.5-.5v-9a.5.5 0 00-1 0v9a.5.5 0 00.5.5zM30.444 27.997l.057.003a.5.5 0 00.496-.445l1-9a.5.5 0 00-.994-.11l-1 9a.5.5 0 00.441.552zM34.5 12a.5.5 0 00.378-.827l-9.5-11a.5.5 0 00-.756.653l9.5 11A.497.497 0 0034.5 12zM17.816.113a.5.5 0 00-.703.071l-9 11a.5.5 0 10.774.632l9-11a.5.5 0 00-.071-.703zM41.5 10h-4a.5.5 0 000 1h4a.5.5 0 000-1zM13.5 11h16a.5.5 0 000-1h-16a.5.5 0 000 1zM.5 11h5a.5.5 0 000-1h-5a.5.5 0 000 1z"/></g></svg>